<?xml version="1.0" encoding="utf-8"?>
<!-- Generator: Adobe Illustrator 19.0.0, SVG Export Plug-In . SVG Version: 6.00 Build 0)  -->
<svg version="1.1" id="Layer_1" xmlns="http://www.w3.org/2000/svg" xmlns:xlink="http://www.w3.org/1999/xlink" x="0px" y="0px"
	 viewBox="-482 484 34 34" style="enable-background:new -482 484 34 34;" xml:space="preserve">
<style type="text/css">
	.st0{fill:#0077B6;}
	.st1{fill:#FFFFFF;}
</style>
<circle id="Circle" class="st0" cx="-465" cy="501" r="17"/>
<path class="st1" d="M-463.7,501l4.2-4.2c0.4-0.4,0.4-1,0-1.4c-0.4-0.4-1-0.4-1.4,0l-4.2,4.2l-4.2-4.2c-0.4-0.4-1-0.4-1.4,0
	c-0.4,0.4-0.4,1,0,1.4l4.2,4.2l-4.2,4.2c-0.4,0.4-0.4,1,0,1.4c0.2,0.2,0.4,0.3,0.7,0.3c0.3,0,0.5-0.1,0.7-0.3l4.2-4.2l4.2,4.2
	c0.2,0.2,0.5,0.3,0.7,0.3c0.3,0,0.5-0.1,0.7-0.3c0.4-0.4,0.4-1,0-1.4L-463.7,501z"/>
</svg>
