<svg xmlns="http://www.w3.org/2000/svg" width="12.828" height="16.4" viewBox="0 0 12.828 16.4">
  <g id="ic-delete" transform="translate(-12.15 -4.983)">
    <path id="XMLID_6_" d="M24.228,16.908H12.9v-.782A1.263,1.263,0,0,1,14.092,14.8h8.943a1.263,1.263,0,0,1,1.192,1.326Z" transform="translate(0 -7.007)" fill="none" stroke="#0077b6" stroke-linecap="round" stroke-linejoin="round" stroke-miterlimit="10" stroke-width="1.5"/>
    <path id="XMLID_5_" d="M31,7.96H24.7A1.987,1.987,0,0,1,26.6,5.9h2.534A1.984,1.984,0,0,1,31,7.96Z" transform="translate(-9.287 -0.167)" fill="none" stroke="#0077b6" stroke-linecap="round" stroke-linejoin="round" stroke-miterlimit="10" stroke-width="1.5"/>
    <path id="XMLID_4_" d="M25.893,24.7v9.305a1.358,1.358,0,0,1-1.256,1.427H17.056A1.344,1.344,0,0,1,15.8,34.005V24.7" transform="translate(-2.282 -14.799)" fill="none" stroke="#0077b6" stroke-linecap="round" stroke-linejoin="round" stroke-miterlimit="10" stroke-width="1.5"/>
  </g>
</svg>
